<?xml version="1.0" encoding="UTF-8"?> <svg xmlns="http://www.w3.org/2000/svg" viewBox="0 0 517.1 397.16"><defs><style>.cls-1{fill:#d6dfdf;}.cls-2{fill:#c4cccc;}.cls-3{fill:#324c8d;}.cls-4{fill:#eef2f2;}.cls-5{fill:#1b958a;}.cls-6{fill:#111517;}.cls-7{fill:#2c3f51;}.cls-8{fill:#384875;}.cls-9{fill:#6279bb;}.cls-10{fill:#031930;}.cls-11{fill:#199287;}.cls-12{fill:#e6e0cf;}.cls-13{fill:#fff;}.cls-14{fill:#0b161e;}.cls-15{fill:none;}.cls-16{fill:#1a7c70;}.cls-17{fill:#0b161d;}.cls-18{fill:#5a7a8e;}.cls-19{fill:#f04b43;}.cls-20{fill:#f0f6f9;opacity:0.3;}.cls-21{fill:#199488;}.cls-22{fill:#0a2d4c;}.cls-23{fill:#8da2a9;}.cls-24{fill:#2f3f35;}.cls-25{fill:#c43737;}.cls-26{fill:#d4dede;}.cls-27{fill:#2f4d8f;}.cls-28{opacity:0.26;}</style></defs><g id="Keif"><path class="cls-1" d="M454.59,81.73l26-2.69,6.94,69.41-25.75,2.67a4,4,0,0,1-4.38-3.57L451,86.12A4,4,0,0,1,454.59,81.73Z"></path><path class="cls-2" d="M506.33,76.37a4,4,0,0,1,4.38,3.57l6.36,61.43a4,4,0,0,1-3.56,4.39l-26,2.69L480.58,79Z"></path><path class="cls-1" d="M446.58,134.45c-6.74,0-12.41-4.28-13-10.11l-1.26-12.14a10.76,10.76,0,0,1,3.39-8.78,15,15,0,0,1,8.91-4l17.19-1.78.73,7.08-17.19,1.78a7.93,7.93,0,0,0-4.67,2,3.79,3.79,0,0,0-1.28,3l1.26,12.14c.24,2.35,3.38,4,6.85,3.67l17.19-1.77.73,7.07-17.19,1.78A15.48,15.48,0,0,1,446.58,134.45Z"></path><path class="cls-3" d="M58.37,11,86.79,133.44l45.87-10.66a6.94,6.94,0,0,0,5.18-8.33L112.39,4.77A6.17,6.17,0,0,0,105,.16Z"></path><path class="cls-3" d="M136.9,110.19,113.09,7.8A9.28,9.28,0,0,0,102,.86L5.75,23.24h0c-5,2.58-6.92,11-5,19.09L27.08,155.7v0l.2.88A5.93,5.93,0,0,0,34.4,161l94-21.87a5.56,5.56,0,0,0,4.16-6.68l-2.69-11.58.36-.08A8.85,8.85,0,0,0,136.9,110.19ZM27.16,149.92a10.43,10.43,0,0,1,.47-1.68A10.43,10.43,0,0,0,27.16,149.92Zm.55-1.9a.08.08,0,0,0,0,0A.08.08,0,0,1,27.71,148Z"></path><path class="cls-1" d="M34.23,157.5a2.68,2.68,0,0,1-3.23-2l-.18-.75c-.92-8.07,2.46-8.85,3.74-9.15l.39-.08.1,0,97.82-22.75L129.53,134a2.51,2.51,0,0,1-1.84,1.74Z"></path><path class="cls-1" d="M25.61,108.62c-5,2.51-7,10.55-5.24,18.22l3.46,14.85C22,134,24.05,126,29.07,123.47"></path><path class="cls-1" d="M10.69,44.54c-5,2.5-7,10.55-5.24,18.22L8.9,77.61c-1.78-7.67.23-15.71,5.25-18.22"></path><path class="cls-4" d="M85.28,45.7a12.77,12.77,0,0,0,2.23,25.16l.1.44a7.44,7.44,0,0,1-5.51,9h0L74.92,82a12.67,12.67,0,0,0-10.18-6.22l-5.55-23a12.8,12.8,0,1,0-7.31,1.72l5.57,23.07a12.75,12.75,0,0,0,5.71,23.67l4.07,16.86a3.76,3.76,0,1,0,7.31-1.75h0L70.47,99.52A12.89,12.89,0,0,0,76.73,89.3l7.14-1.72a15,15,0,0,0,11-18l-.11-.46A12.76,12.76,0,0,0,85.28,45.7ZM47.58,43a5.22,5.22,0,1,1,2.3,3.21A5.22,5.22,0,0,1,47.58,43Zm20.89,48.2,0,.07h-.06A5.23,5.23,0,1,1,66.64,84h.08l0,.08a5.27,5.27,0,0,1,1.73,7.15Zm24.34-30.4a5.46,5.46,0,0,1-3.3,2.39,5.19,5.19,0,1,1,3.3-2.39Z"></path><path class="cls-5" d="M126.65,119.71a7.52,7.52,0,0,0-14.1-5.25,187.15,187.15,0,0,0-11,46.91c4.85,1.52,10.22,3.18,14.68,4.51A172.35,172.35,0,0,1,126.65,119.71Z"></path><path class="cls-6" d="M118.66,154.56c0-.32.1-.64.16-.95a1.51,1.51,0,0,0-1.18-1.73l-15-3a1.11,1.11,0,0,0-1.32.93c-.32,2.06-1,6.42-1.25,9l17.66,3.37A76,76,0,0,1,118.66,154.56Z"></path><rect class="cls-7" x="103.05" y="150.57" width="0.63" height="8.14" rx="0.11" transform="translate(23.45 -13.32) rotate(8.32)"></rect><rect class="cls-7" x="106.13" y="151.15" width="0.63" height="8.14" rx="0.11" transform="translate(23.57 -13.76) rotate(8.32)"></rect><rect class="cls-7" x="109.2" y="151.74" width="0.63" height="8.14" rx="0.11" transform="translate(23.68 -14.2) rotate(8.32)"></rect><rect class="cls-7" x="112.28" y="152.32" width="0.63" height="8.14" rx="0.11" transform="translate(23.8 -14.64) rotate(8.32)"></rect><rect class="cls-7" x="115.35" y="152.91" width="0.63" height="8.14" rx="0.11" transform="translate(23.92 -15.08) rotate(8.32)"></rect><path class="cls-8" d="M181,80.33v0a.29.29,0,0,1,0-.42l5.48-5.17a.3.3,0,0,1,.43,0h0c.12.13.11.32.18.43l-5.48,5.17C181.34,80.46,181.15,80.45,181,80.33Z"></path><path class="cls-5" d="M213.05,58.5a7.42,7.42,0,0,0-3.62-13.89,7.22,7.22,0,0,0-3.54.92A157.18,157.18,0,0,0,174.5,68.42c3.6,3.22,7.58,6.8,11.06,9.94A142.33,142.33,0,0,1,213.05,58.5Z"></path><path class="cls-6" d="M189.87,75.15l-11-11.37a1.21,1.21,0,0,0-1.69-.06q-3.35,3-6.58,6.47l12.8,13.53a92.28,92.28,0,0,1,6.42-6.85A1.2,1.2,0,0,0,189.87,75.15Z"></path><rect class="cls-7" x="184.58" y="73.46" width="0.63" height="8.14" rx="0.11" transform="translate(255.38 265.22) rotate(-133.33)"></rect><rect class="cls-7" x="182.33" y="71.27" width="0.63" height="8.14" rx="0.11" transform="translate(253.19 259.9) rotate(-133.33)"></rect><rect class="cls-7" x="180.09" y="69.09" width="0.63" height="8.14" rx="0.11" transform="translate(250.98 254.59) rotate(-133.33)"></rect><rect class="cls-7" x="177.84" y="66.91" width="0.63" height="8.14" rx="0.11" transform="translate(248.79 249.27) rotate(-133.33)"></rect><rect class="cls-7" x="175.6" y="64.73" width="0.63" height="8.14" rx="0.11" transform="translate(246.59 243.96) rotate(-133.33)"></rect><path class="cls-9" d="M277.1,331.5H245.77l10.12,44.31c6.65,13.31,20.77,21.08,21.21,21.36A155,155,0,0,0,297,377.26l11.44-45.77Z"></path><path class="cls-3" d="M277.1,331.5v65.66c.44-.28,16.11-8.59,21.23-21.36l10.12-44.31Z"></path><polygon class="cls-10" points="305.42 266.49 312.34 268.65 317.57 282.8 293.81 282.8 293.81 266.42 305.42 266.49"></polygon><polygon class="cls-10" points="248.8 266.49 241.88 268.65 236.65 282.8 260.41 282.8 260.41 266.42 248.8 266.49"></polygon><polygon class="cls-10" points="260.41 266.42 260.41 282.8 277.1 282.8 277.1 266.31 260.41 266.42"></polygon><path class="cls-11" d="M330.88,204.48s10.55-45.56,15.14-51.27l-16.83-29.79L225,124.81l-25.69,13.6,9.27,38.1c.26,1.78,14.09,26,14.29,28a21.26,21.26,0,0,0-10.57,18.65,21.61,21.61,0,0,0,15.19,20.48s5.42,11.38,28.43,16v12.65a4.53,4.53,0,0,1-4.53,4.53l-5.85,1.54-6,32.27,2.07,2.79,14.09,15.85,14.08,15.32H284L298.1,329.2l5.21-6.12,4.63-19.39,6.36-22.16-11.89-4.78a4.53,4.53,0,0,1-4.54-4.53V259.56c23-4.59,28.4-15.95,28.4-15.95a21.64,21.64,0,0,0,15.21-20.48A21.28,21.28,0,0,0,330.88,204.48Z"></path><path class="cls-12" d="M343.1,191.33h0S343.11,191.32,343.1,191.33Z"></path><path class="cls-13" d="M239.5,203h0v.09l0,.13v0A1.07,1.07,0,0,0,239.5,203Z"></path><path class="cls-11" d="M308.89,213.87a14.47,14.47,0,1,1-4.24,10.23A14.41,14.41,0,0,1,308.89,213.87Z"></path><path class="cls-11" d="M243.9,234.34a14.47,14.47,0,1,1,4.24-10.24A14.45,14.45,0,0,1,243.9,234.34Z"></path><path class="cls-14" d="M319.12,238.58a14.48,14.48,0,1,0-10.23-4.24A14.45,14.45,0,0,0,319.12,238.58Z"></path><path class="cls-14" d="M233.67,209.63a14.48,14.48,0,1,0,10.23,4.24A14.41,14.41,0,0,0,233.67,209.63Z"></path><path class="cls-14" d="M230.91,201.24a5.66,5.66,0,0,0-.43,5,5.57,5.57,0,0,0,1.42,2,5.19,5.19,0,0,0,2,1.07H234a.91.91,0,1,1-.47,1.76l-.14-.05a6.67,6.67,0,0,1-2.47-1.85,6.39,6.39,0,0,1-1.3-2.65A6.08,6.08,0,0,1,230.91,201.24Z"></path><path class="cls-14" d="M226.59,201.52a6.52,6.52,0,0,0-.49,5.82,6.21,6.21,0,0,0,1.64,2.29,5.81,5.81,0,0,0,2.37,1.23l0,0a1.06,1.06,0,1,1-.54,2l-.16-.06a7.49,7.49,0,0,1-4.37-5.21A7.06,7.06,0,0,1,226.59,201.52Z"></path><path class="cls-14" d="M221.78,202.17a7.46,7.46,0,0,0-.56,6.65,7,7,0,0,0,1.88,2.63,6.86,6.86,0,0,0,2.71,1.41l.06,0a1.21,1.21,0,1,1-.62,2.33l-.19-.07a8.49,8.49,0,0,1-5-6,8,8,0,0,1,0-3.78A8.17,8.17,0,0,1,221.78,202.17Z"></path><path class="cls-15" d="M217.73,247c-2.86-5.87-3.37-11.93-3.69-18.09C219.67,230,221.9,241.07,217.73,247Z"></path><path class="cls-15" d="M217.73,247c-2.86-5.87-3.37-11.93-3.69-18.09C219.67,230,221.9,241.07,217.73,247Z"></path><path class="cls-14" d="M322,201.24a6.11,6.11,0,0,1,1.3,5.3,6.5,6.5,0,0,1-3.78,4.5.9.9,0,0,1-1.2-.45.91.91,0,0,1,.45-1.21l.14,0H319a5.19,5.19,0,0,0,2-1.07,5.45,5.45,0,0,0,1.42-2A5.63,5.63,0,0,0,322,201.24Z"></path><path class="cls-14" d="M326.34,201.52a7.06,7.06,0,0,1,1.5,6.13,7.49,7.49,0,0,1-4.37,5.21,1.05,1.05,0,1,1-.71-2l.06,0a5.81,5.81,0,0,0,2.37-1.23,6.21,6.21,0,0,0,1.64-2.29A6.52,6.52,0,0,0,326.34,201.52Z"></path><path class="cls-14" d="M331.15,202.17a8,8,0,0,1,1.71,7,8.64,8.64,0,0,1-1.72,3.52,8.84,8.84,0,0,1-3.27,2.44,1.21,1.21,0,1,1-1-2.2.64.64,0,0,1,.18-.06l.07,0a7,7,0,0,0,2.72-1.41,7.14,7.14,0,0,0,1.87-2.63A7.46,7.46,0,0,0,331.15,202.17Z"></path><path class="cls-16" d="M255.91,259.57c3.51,1,7,2.07,10.49,2.94,1.75.4,3.5.85,5.26,1.12a31.24,31.24,0,0,0,5.24.53,46.19,46.19,0,0,0,10.5-1.62c3.49-.88,7-1.92,10.47-3a56.3,56.3,0,0,1-10,4.45,35.77,35.77,0,0,1-10.94,2.12A37.28,37.28,0,0,1,266,264,59.25,59.25,0,0,1,255.91,259.57Z"></path><path class="cls-4" d="M253.28,276.26c-18.32,3.15-15,10.14-15,10.14l15.55,75.41H277.1V284l-.76.08C268.29,284.8,253.28,276.26,253.28,276.26Z"></path><path class="cls-5" d="M309.06,215.59a14.49,14.49,0,1,1-4.25,10.25A14.43,14.43,0,0,1,309.06,215.59Z"></path><path class="cls-5" d="M244,236.09a14.49,14.49,0,1,1,4.25-10.25A14.45,14.45,0,0,1,244,236.09Z"></path><path class="cls-17" d="M319.31,240.34a14.51,14.51,0,1,0-10.25-4.25A14.45,14.45,0,0,0,319.31,240.34Z"></path><path class="cls-17" d="M233.7,211.34A14.51,14.51,0,1,0,244,215.59,14.43,14.43,0,0,0,233.7,211.34Z"></path><path class="cls-18" d="M243.74,270.51c.54-2.65,12.17-3.11,12.17-3.11v-1s-7.19-.53-11.8.66c-1.5.39-8.9,3.32-9.14,9.1s1.28,7.65,1.28,7.65l9.56-4.54S243,274,243.74,270.51Z"></path><path class="cls-17" d="M356.23,116.31a66,66,0,0,0-11.1-28.06C337.6,77.55,327.26,69.38,316,63a.85.85,0,0,1,.19-1.54,23.24,23.24,0,0,1,11.68.17,40.94,40.94,0,0,0-7.65-5.71c-9.68-5.53-20.48-5.6-30.51-.84-.52.24-1.31,0-1.26-.73.42-5.66,4.45-10.3,9.16-13.22-8.88.4-18.18,4.06-23.43,11.26-.43.6-1.66.5-1.57-.42.43-4.16,1.78-8.77,4.55-12.07-5.4,1.82-11,5.18-12.8,10.52a.86.86,0,0,1-1.41.37,19.48,19.48,0,0,0-19.76-3.41,15.67,15.67,0,0,1,7.74,2.74.84.84,0,0,1-.2,1.53,90.07,90.07,0,0,0-28.15,15.72C215,73.77,209.45,82,205.44,91c-11.13,25-10.52,53.78-3.47,79.81,2.07,7.65,15,18.17,17.23,32.32,1-8.4.3-13-.11-18.32a.85.85,0,0,1,1.57-.42,22.58,22.58,0,0,0,6.28,7.06,141.12,141.12,0,0,1-10.43-23.9c-6.63-19.34-9.73-26.94-3.75-30.16.71-.38-.13-.82,0,0h0c1.85,11.29,5.42-7.69,10.26,2.62,9.59,20.44,23.91,38.54,43,50.68-4.58-6-8.88-12.35-13-18.73-8.7-13.6-16.95-28.09-21.27-43.75-.3-1.07,1.23-1.42,1.62-.44a120.19,120.19,0,0,0,12.14,21.61c9.54,13.89,21.6,26.25,36.5,34.32-.07-.49-.13-1-.2-1.46-.1-.76,1-1.06,1.44-.6.23.23.45.45.67.69a75.8,75.8,0,0,0-11.89-26.2c-.61-.84.63-1.55,1.32-1,14.41,11.17,24.15,29.59,25.44,47.77a57.45,57.45,0,0,0,4.61-14.3q.33-3.06.6-6.14c.09-1.06,1.69-1.1,1.68,0a44,44,0,0,1-.62,6.44c-.1.87-.19,1.73-.29,2.61a66.79,66.79,0,0,1-1.32,9.32l2.12-1.06A103.71,103.71,0,0,0,312,186a100.81,100.81,0,0,1-5.08,14.23.87.87,0,0,1,0,.48A34.78,34.78,0,0,1,305,206a68.93,68.93,0,0,0,7.68-6.76,10.75,10.75,0,0,1,.91-2.2,127.23,127.23,0,0,0,8.58-19.24,95,95,0,0,0,4.48-19A94.26,94.26,0,0,1,322.84,178a125.75,125.75,0,0,1-7.09,17.88,87.36,87.36,0,0,0,12.76-19.63c.15-.32,9.72-11.9,12.87-20.75,2.61-7.33,3-9.66,3.28-11.76-.24,2.12-1,3.45-2.62,11.11-3.45,16.74-14.64,22.38-12.23,37.64a41.52,41.52,0,0,0,4.9,14.78c-.75-7.2,1.55-14.27,4.91-20.63a188.38,188.38,0,0,0,8.69-18.55C354.76,151.85,358.91,133.83,356.23,116.31Z"></path><path class="cls-19" d="M300.5,274.85a5,5,0,0,0-1.54-1.36,30.86,30.86,0,0,1-21.83,8.45h0a30.83,30.83,0,0,1-21.8-8.45,5,5,0,0,0-1.55,1.36,3.81,3.81,0,0,0-.44,1.41c6.94,6.16,15,8.63,23.79,8.64h0c8.8,0,16.87-2.48,23.81-8.64A3.62,3.62,0,0,0,300.5,274.85Z"></path><g id="_0ixGbl" data-name="0ixGbl"><path class="cls-6" d="M350.21,202.17c-8.16-1.87-16.22-4.28-24.64-4.85a1.87,1.87,0,0,1-.58-.22h-7.35c-2.5.33-5,.56-7.51,1-5.35.94-10.68,1.95-16,3a90.75,90.75,0,0,1-17,2.05v11.14c.51,0,1.06,0,1.68.06,1.72-.2,2.45,3.13,3.09,4.52a55.69,55.69,0,0,1,2.31,5.86c1.85,5.64,4.12,11,7.87,15.74,4.12,5.17,9.58,8,15.86,9.48,8,1.85,15.92,1.4,23.43-2.33a23.46,23.46,0,0,0,12.37-15c1.22-4.07,2.16-8.23,3.36-12.3a25.93,25.93,0,0,1,2.13-5,7,7,0,0,1,2.07-2,2.92,2.92,0,0,0,1.31-2.46c0-1.94,0-3.88,0-5.82A2.6,2.6,0,0,0,350.21,202.17ZM337,236.25c-2.37,5.3-6.84,8.23-12.5,9.24-2.65.48-5.34.71-8,1.06-7.6-.23-14.32-2.42-19.65-8a22.1,22.1,0,0,1-3.07-4,49.92,49.92,0,0,1-6.3-15.36c-1.32-6.69.83-10.71,7.14-13.42a46.34,46.34,0,0,1,20.87-3.68A84.65,84.65,0,0,1,331.9,204a24.23,24.23,0,0,1,5.61,2.23,7.82,7.82,0,0,1,4.18,6.82A50.44,50.44,0,0,1,337,236.25Z"></path><path class="cls-6" d="M272.65,202.88c-4.92-.53-9.81-1.51-14.67-2.52a164.54,164.54,0,0,0-21.88-3.06,8.48,8.48,0,0,1-1.1-.2h-5.83c-2.38.31-4.78.5-7.13.94-5.46,1-10.91,2.14-16.35,3.24-1.73.35-3.45.76-5.17,1.15v6.84c.34,2.44,1.85,4.19,3.46,5.88a13.31,13.31,0,0,1,3.13,6.38,108.38,108.38,0,0,0,6.21,18,15.94,15.94,0,0,0,8.25,8c6.4,3.1,13.22,3.87,20.22,3.42a28.33,28.33,0,0,0,12.71-3.42c4.62-2.7,7.89-6.66,10.76-11a51.46,51.46,0,0,0,6.26-15.11c1.18-5.92,2.18-7.16,5.58-7.16V203.11A44.36,44.36,0,0,1,272.65,202.88Zm-5.77,15.78a44.23,44.23,0,0,1-8.23,18.43c-4.16,5.31-9.82,8.08-16.45,9a36.9,36.9,0,0,1-13.69-.83A16.21,16.21,0,0,1,216.64,235a54.13,54.13,0,0,1-4.15-20.57c.08-4.94,2.22-7.77,6.86-9.51,4.4-1.65,9-2,13.63-2.48,2-.19,4-.28,6.58-.45a45.16,45.16,0,0,1,21.22,4.33C266.13,209,268.11,212.8,266.88,218.66Z"></path></g><path class="cls-20" d="M337,236.24c-2.39,5.31-6.85,8.24-12.51,9.26-2.61.45-5.26.69-7.89,1h-.12a40.34,40.34,0,0,1-4.32-.37,25.34,25.34,0,0,1-15.34-7.66,21.93,21.93,0,0,1-3.07-4,50,50,0,0,1-6.3-15.37,18.35,18.35,0,0,1-.37-3.38v-.2c0-4.61,2.42-7.65,7.52-9.84A45.52,45.52,0,0,1,312.18,202c1.09,0,2.19,0,3.3,0l1.14.06A80.2,80.2,0,0,1,331.9,204a23.8,23.8,0,0,1,5.61,2.23A7.85,7.85,0,0,1,341.7,213,50.49,50.49,0,0,1,337,236.24Z"></path><path class="cls-20" d="M259.67,205.73A45.64,45.64,0,0,0,242.11,202c-1.1,0-2.2,0-3.3.05A84,84,0,0,0,222.38,204a23.73,23.73,0,0,0-5.6,2.23,7.85,7.85,0,0,0-4.19,6.81,50.49,50.49,0,0,0,4.68,23.21c2.37,5.31,6.84,8.24,12.51,9.26,2.65.46,5.34.7,8,1.05a40.57,40.57,0,0,0,4.32-.37,25.39,25.39,0,0,0,15.34-7.66,22.38,22.38,0,0,0,3.07-4,50.2,50.2,0,0,0,6.29-15.37C268.14,212.47,266,208.45,259.67,205.73Z"></path><path class="cls-5" d="M114.21,177.05c0-1.27,0-2.54.05-3.81H100.15c0,1.27-.05,2.54-.05,3.81A176.41,176.41,0,0,0,245.81,350.78V336.43A162.32,162.32,0,0,1,114.21,177.05Z"></path><path class="cls-5" d="M227,302.83A135.14,135.14,0,0,1,173.83,89.22h-18a149.25,149.25,0,0,0,85.26,232.85Z"></path><path class="cls-21" d="M114.92,177.45c0-2.81.08-5.61.22-8.39L101,166.57q-.33,5.4-.33,10.88A178.06,178.06,0,0,0,232.15,349.31v-14.8A163.84,163.84,0,0,1,114.92,177.45Z"></path><path class="cls-6" d="M227.83,299.8l-12.21-6a132.91,132.91,0,0,1-40.05-198.6l.18-.22c.75-1,1.51-1.89,2.28-2.81l2.11-2.51c1.22-1.46,2.54-3,3.9-4.62a.85.85,0,0,0,0-1.15L170.68,69.76a.85.85,0,0,0-1.26,0q-2.35,2.53-4.72,5.32l-4.38,5.22-.23.28a154.08,154.08,0,0,0,57,237.53l15.1,6.66,1.5,5.94-14-4.19a162,162,0,0,1-68.78-52.3,158.87,158.87,0,0,1-32.49-96.77c0-1.55,0-3.13.07-4.75,0-1.14.07-2.29.14-3.45l.38-4.71c0-.45.07-.88.1-1.29a1,1,0,0,0-.84-1.09l-19-3.62a1,1,0,0,0-1.22.91c-.09.89-.19,1.88-.3,3l-.44,8.47c0,.76-.06,1.53-.06,2.29,0,1.41-.06,2.82-.06,4.22A181.73,181.73,0,0,0,228,351.74l9.81,2.71c3.32,5.91,8.36,14.53,8.36,14.53l11,5-20.9-90.09S227.41,289.56,227.83,299.8Z"></path><path class="cls-18" d="M252.59,312.68c-.86-12.51-6.78-33.37-6.78-33.37l-9.56,4.54,5.87,18.82,12.18,69.59h4.28C256.51,352.5,253,318.68,252.59,312.68Z"></path><polygon class="cls-22" points="239.2 282.37 236.25 283.85 253.44 369.6 256.68 369.6 239.2 282.37"></polygon><polygon class="cls-23" points="255.06 368.02 254.88 367.1 254.53 365.39 254.34 364.46 254.01 362.75 253.82 361.81 253.48 360.11 253.3 359.18 252.97 357.53 252.79 356.6 252.45 354.86 252.26 353.94 251.93 352.23 251.74 351.3 251.4 349.59 251.21 348.65 250.87 346.95 250.69 346.02 250.35 344.31 250.17 343.38 249.83 341.67 249.65 340.74 249.31 339.03 249.13 338.1 248.79 336.39 248.6 335.46 248.26 333.75 248.08 332.82 247.74 331.11 247.56 330.19 247.22 328.47 247.03 327.55 246.7 325.84 246.51 324.91 246.18 323.2 245.98 322.26 245.65 320.55 245.46 319.63 245.12 317.91 244.94 316.98 244.61 315.33 244.43 314.4 244.09 312.68 243.9 311.75 243.56 310.04 243.38 309.1 243.05 307.39 242.86 306.47 242.51 304.75 242.33 303.83 241.99 302.12 241.81 301.19 241.47 299.48 241.29 298.55 240.95 296.84 240.77 295.91 240.43 294.2 240.24 293.27 239.9 291.56 239.72 290.63 239.38 288.92 239.19 288 238.86 286.29 238.38 284.01 237.8 284.12 238.27 286.4 238.61 288.11 238.79 289.04 239.14 290.75 239.33 291.67 239.66 293.39 239.85 294.31 240.18 296.03 240.37 296.96 240.71 298.67 240.89 299.59 241.23 301.31 241.42 302.23 241.76 303.94 241.94 304.87 242.28 306.58 242.46 307.52 242.8 309.22 242.98 310.15 243.32 311.87 243.51 312.79 243.85 314.51 244.03 315.45 244.36 317.09 244.55 318.03 244.89 319.74 245.07 320.67 245.41 322.38 245.59 323.3 245.93 325.03 246.12 325.95 246.45 327.66 246.64 328.59 246.98 330.3 247.17 331.23 247.51 332.94 247.69 333.86 248.03 335.57 248.21 336.51 248.55 338.22 248.73 339.15 249.07 340.86 249.25 341.78 249.6 343.5 249.78 344.42 250.12 346.13 250.3 347.07 250.64 348.77 250.82 349.7 251.16 351.42 251.36 352.34 251.69 354.06 251.88 354.98 252.21 356.71 252.41 357.64 252.73 359.29 252.91 360.22 253.25 361.93 253.44 362.86 253.77 364.57 253.96 365.5 254.29 367.21 254.49 368.14 254.77 369.6 255.37 369.6 255.06 368.02"></polygon><polygon class="cls-23" points="243.74 307.25 243.05 307.39 242.46 307.52 241.77 307.65 241.58 306.72 242.28 306.58 242.86 306.47 243.56 306.33 243.74 307.25"></polygon><polygon class="cls-23" points="243.22 304.62 242.51 304.75 241.94 304.87 241.25 305.01 241.06 304.08 241.76 303.94 242.33 303.83 243.04 303.69 243.22 304.62"></polygon><polygon class="cls-23" points="242.69 301.98 241.99 302.12 241.42 302.23 240.72 302.37 240.53 301.44 241.23 301.31 241.81 301.19 242.5 301.05 242.69 301.98"></polygon><polygon class="cls-23" points="242.17 299.34 241.47 299.48 240.89 299.59 240.19 299.73 240.01 298.81 240.71 298.67 241.29 298.55 241.99 298.41 242.17 299.34"></polygon><polygon class="cls-23" points="241.65 296.71 240.95 296.84 240.37 296.96 239.67 297.1 239.49 296.17 240.18 296.03 240.77 295.91 241.45 295.77 241.65 296.71"></polygon><polygon class="cls-23" points="241.12 294.06 240.43 294.2 239.85 294.31 239.14 294.46 238.96 293.52 239.66 293.39 240.24 293.27 240.93 293.13 241.12 294.06"></polygon><polygon class="cls-23" points="240.59 291.42 239.9 291.56 239.33 291.67 238.62 291.82 238.44 290.88 239.14 290.75 239.72 290.63 240.41 290.5 240.59 291.42"></polygon><polygon class="cls-23" points="240.06 288.78 239.38 288.92 238.79 289.04 238.1 289.17 237.91 288.25 238.61 288.11 239.19 288 239.88 287.86 240.06 288.78"></polygon><polygon class="cls-23" points="239.54 286.14 238.86 286.29 238.27 286.4 237.57 286.53 237.38 285.61 238.09 285.47 238.67 285.36 239.36 285.22 239.54 286.14"></polygon><polygon class="cls-23" points="244.79 312.54 244.09 312.68 243.51 312.79 242.82 312.93 242.63 312 243.32 311.87 243.9 311.75 244.61 311.6 244.79 312.54"></polygon><polygon class="cls-23" points="244.27 309.89 243.56 310.04 242.98 310.15 242.3 310.29 242.12 309.36 242.8 309.22 243.38 309.1 244.08 308.97 244.27 309.89"></polygon><polygon class="cls-23" points="252.1 349.44 251.4 349.59 250.82 349.7 250.13 349.84 249.95 348.91 250.64 348.77 251.21 348.65 251.92 348.52 252.1 349.44"></polygon><polygon class="cls-23" points="251.58 346.81 250.87 346.95 250.3 347.07 249.61 347.2 249.43 346.27 250.12 346.13 250.69 346.02 251.4 345.88 251.58 346.81"></polygon><polygon class="cls-23" points="251.06 344.17 250.35 344.31 249.78 344.42 249.09 344.56 248.9 343.63 249.6 343.5 250.17 343.38 250.87 343.24 251.06 344.17"></polygon><polygon class="cls-23" points="250.53 341.53 249.83 341.67 249.25 341.78 248.56 341.92 248.37 341 249.07 340.86 249.65 340.74 250.35 340.61 250.53 341.53"></polygon><polygon class="cls-23" points="250.01 338.89 249.31 339.03 248.73 339.15 248.03 339.28 247.85 338.36 248.55 338.22 249.13 338.1 249.83 337.96 250.01 338.89"></polygon><polygon class="cls-23" points="249.48 336.26 248.79 336.39 248.21 336.51 247.51 336.65 247.32 335.72 248.03 335.57 248.6 335.46 249.29 335.32 249.48 336.26"></polygon><polygon class="cls-23" points="248.96 333.61 248.26 333.75 247.69 333.86 246.98 334.01 246.8 333.07 247.51 332.94 248.08 332.82 248.77 332.68 248.96 333.61"></polygon><polygon class="cls-23" points="248.44 330.97 247.74 331.11 247.17 331.23 246.46 331.37 246.28 330.44 246.98 330.3 247.56 330.19 248.24 330.05 248.44 330.97"></polygon><polygon class="cls-23" points="247.9 328.33 247.22 328.47 246.64 328.59 245.93 328.72 245.75 327.8 246.45 327.66 247.03 327.55 247.72 327.41 247.9 328.33"></polygon><polygon class="cls-23" points="247.38 325.7 246.7 325.84 246.12 325.95 245.41 326.09 245.22 325.16 245.93 325.03 246.51 324.91 247.2 324.77 247.38 325.7"></polygon><polygon class="cls-23" points="246.85 323.06 246.18 323.2 245.59 323.3 244.89 323.45 244.69 322.52 245.41 322.38 245.98 322.26 246.67 322.12 246.85 323.06"></polygon><polygon class="cls-23" points="246.33 320.42 245.65 320.55 245.07 320.67 244.35 320.81 244.17 319.89 244.89 319.74 245.46 319.63 246.15 319.49 246.33 320.42"></polygon><polygon class="cls-23" points="245.81 317.77 245.12 317.91 244.55 318.03 243.83 318.17 243.65 317.24 244.36 317.09 244.94 316.98 245.62 316.85 245.81 317.77"></polygon><polygon class="cls-23" points="245.4 315.18 244.61 315.33 244.03 315.45 243.43 315.57 243.25 314.63 243.85 314.51 244.43 314.4 245.22 314.25 245.4 315.18"></polygon><polygon class="cls-23" points="253.16 354.73 252.45 354.86 251.88 354.98 251.18 355.12 251 354.19 251.69 354.06 252.26 353.94 252.97 353.79 253.16 354.73"></polygon><polygon class="cls-23" points="252.63 352.09 251.93 352.23 251.36 352.34 250.66 352.48 250.48 351.56 251.16 351.42 251.74 351.3 252.45 351.16 252.63 352.09"></polygon><polygon class="cls-23" points="255.22 365.25 254.53 365.39 253.96 365.5 253.25 365.64 253.06 364.71 253.77 364.57 254.34 364.46 255.03 364.32 255.22 365.25"></polygon><polygon class="cls-23" points="254.69 362.61 254.01 362.75 253.44 362.86 252.72 363 252.53 362.07 253.25 361.93 253.82 361.81 254.51 361.68 254.69 362.61"></polygon><polygon class="cls-23" points="254.17 359.97 253.48 360.11 252.91 360.22 252.2 360.36 252.01 359.44 252.73 359.29 253.3 359.18 253.99 359.04 254.17 359.97"></polygon><polygon class="cls-23" points="253.77 357.37 252.97 357.53 252.41 357.64 251.8 357.76 251.61 356.83 252.21 356.71 252.79 356.6 253.58 356.43 253.77 357.37"></polygon><path class="cls-1" d="M300.94,276.26c18.32,3.15,15,10.14,15,10.14L300.4,361.81H277.12V284l.76.08C285.94,284.8,300.94,276.26,300.94,276.26Z"></path><path class="cls-7" d="M310.49,270.51c-.55-2.65-12.18-3.11-12.18-3.11v-1s7.19-.53,11.8.66c1.5.39,8.9,3.32,9.14,9.1s-1.28,7.65-1.28,7.65l-9.56-4.54S311.19,274,310.49,270.51Z"></path><path class="cls-5" d="M440,177.05a163.53,163.53,0,0,0-1.1-18.89l14-1.53A176.48,176.48,0,0,1,308.41,350.78V336.43A162.33,162.33,0,0,0,440,177.05Z"></path><path class="cls-5" d="M327.21,302.83a135.15,135.15,0,0,0,42-225.17c3.32-3,7.11-6.4,10.54-9.47A149.24,149.24,0,0,1,313.1,322.07Z"></path><path class="cls-21" d="M439.3,177.45c0-2.81-.08-5.61-.22-8.39l14.13-2.49q.33,5.4.33,10.88A178.05,178.05,0,0,1,322.08,349.31v-14.8A163.85,163.85,0,0,0,439.3,177.45Z"></path><path class="cls-5" d="M428,119.75a7.52,7.52,0,0,1,14.09-5.25,186.72,186.72,0,0,1,11,46.91c-4.84,1.52-10.22,3.18-14.68,4.52A172,172,0,0,0,428,119.75Z"></path><path d="M436,154.6l-.15-.95a1.5,1.5,0,0,1,1.18-1.73l15-3a1.12,1.12,0,0,1,1.32.93c.32,2.06,1,6.43,1.25,9l-17.66,3.37A73,73,0,0,0,436,154.6Z"></path><rect class="cls-7" x="450.98" y="150.61" width="0.63" height="8.14" rx="0.11" transform="translate(920.21 242.46) rotate(171.68)"></rect><rect class="cls-7" x="447.9" y="151.19" width="0.63" height="8.14" rx="0.11" transform="translate(914.17 244.07) rotate(171.69)"></rect><rect class="cls-7" x="444.83" y="151.78" width="0.63" height="8.14" rx="0.11" transform="translate(908.14 245.69) rotate(171.68)"></rect><rect class="cls-7" x="441.75" y="152.37" width="0.63" height="8.14" rx="0.11" transform="translate(902.1 247.29) rotate(171.68)"></rect><rect class="cls-7" x="438.67" y="152.95" width="0.63" height="8.14" rx="0.11" transform="translate(896.07 248.91) rotate(171.68)"></rect><path class="cls-8" d="M373.07,80.5v0a.29.29,0,0,0,0-.42l-5.48-5.18a.31.31,0,0,0-.43,0h0c-.12.12-.11.32-.18.43l5.48,5.17C372.76,80.63,373,80.62,373.07,80.5Z"></path><path class="cls-5" d="M341.05,58.67a7.42,7.42,0,0,1,3.62-13.89,7.2,7.2,0,0,1,3.54.92A156.51,156.51,0,0,1,379.6,68.59c-3.6,3.22-7.58,6.8-11.06,9.94A142,142,0,0,0,341.05,58.67Z"></path><path d="M364.24,75.32l11-11.38a1.2,1.2,0,0,1,1.68,0c2.24,2,4.42,4.17,6.59,6.46L370.7,83.88c-2.13-2.46-4.36-4.91-6.42-6.84A1.21,1.21,0,0,1,364.24,75.32Z"></path><rect class="cls-7" x="368.9" y="73.63" width="0.63" height="8.14" rx="0.11" transform="translate(59.32 292.93) rotate(-46.67)"></rect><rect class="cls-7" x="371.14" y="71.44" width="0.63" height="8.14" rx="0.11" transform="translate(61.62 293.87) rotate(-46.67)"></rect><rect class="cls-7" x="373.39" y="69.26" width="0.63" height="8.14" rx="0.11" transform="translate(63.91 294.82) rotate(-46.67)"></rect><rect class="cls-7" x="375.64" y="67.08" width="0.63" height="8.14" rx="0.11" transform="translate(66.2 295.77) rotate(-46.67)"></rect><rect class="cls-7" x="377.88" y="64.9" width="0.63" height="8.14" rx="0.11" transform="translate(68.49 296.72) rotate(-46.67)"></rect><path d="M326.39,299.8l12.22-6a132.91,132.91,0,0,0,40-198.6l-.18-.22c-.75-1-1.51-1.89-2.28-2.81l-2.11-2.51c-1.22-1.46-2.54-3-3.9-4.62a.85.85,0,0,1,0-1.15l13.33-14.09a.85.85,0,0,1,1.26,0q2.37,2.53,4.72,5.32l4.38,5.22.24.28a154.08,154.08,0,0,1-57,237.53l-15.09,6.66-1.51,5.94,14-4.19a162.11,162.11,0,0,0,68.79-52.3,158.92,158.92,0,0,0,32.48-96.77c0-1.55,0-3.13-.07-4.75,0-1.14-.07-2.29-.13-3.45l-.38-4.71c0-.45-.07-.88-.11-1.29a1,1,0,0,1,.84-1.09l18.95-3.62a1,1,0,0,1,1.22.91c.09.89.19,1.88.3,3l.44,8.47c0,.76.06,1.53.06,2.29.05,1.41.07,2.82.07,4.22A181.74,181.74,0,0,1,326.23,351.74l-10.9,2.71c-3.32,7-7.27,14.53-7.27,14.53l-10.19,1.5L318,283.85S326.81,289.56,326.39,299.8Z"></path><path class="cls-7" d="M318,283.85l-9.56-4.54s-5.92,20.86-6.78,33.37c-.41,5.91-3.82,38.89-5.9,58.75h4.33l12-68.76Z"></path><polygon class="cls-22" points="317.97 283.85 315.02 282.37 297.5 369.82 300.74 369.82 317.97 283.85"></polygon><polygon class="cls-23" points="315.84 284.01 315.37 286.29 315.03 288 314.84 288.92 314.51 290.63 314.32 291.56 313.99 293.27 313.79 294.2 313.45 295.91 313.27 296.84 312.93 298.55 312.75 299.48 312.41 301.19 312.23 302.12 311.89 303.83 311.71 304.75 311.36 306.47 311.18 307.39 310.84 309.1 310.66 310.04 310.32 311.75 310.13 312.68 309.79 314.4 309.61 315.33 309.28 316.98 309.1 317.91 308.76 319.63 308.58 320.55 308.24 322.26 308.05 323.2 307.71 324.91 307.52 325.84 307.19 327.55 307 328.47 306.67 330.19 306.48 331.11 306.14 332.82 305.96 333.75 305.62 335.46 305.43 336.39 305.09 338.1 304.91 339.03 304.57 340.74 304.39 341.67 304.05 343.38 303.87 344.31 303.53 346.02 303.35 346.95 303.01 348.65 302.83 349.59 302.48 351.3 302.29 352.23 301.96 353.94 301.77 354.86 301.43 356.6 301.25 357.53 300.92 359.18 300.74 360.11 300.4 361.81 300.22 362.75 299.88 364.46 299.69 365.39 299.35 367.1 299.16 368.02 298.82 369.74 298.81 369.82 299.41 369.82 299.73 368.14 299.93 367.21 300.26 365.5 300.45 364.57 300.79 362.86 300.97 361.93 301.31 360.22 301.49 359.29 301.82 357.64 302.01 356.71 302.34 354.98 302.53 354.06 302.87 352.34 303.06 351.42 303.4 349.7 303.58 348.77 303.92 347.07 304.1 346.13 304.44 344.42 304.62 343.5 304.97 341.78 305.15 340.86 305.49 339.15 305.68 338.22 306.01 336.51 306.19 335.57 306.53 333.86 306.72 332.94 307.05 331.23 307.24 330.3 307.58 328.59 307.77 327.66 308.11 325.95 308.29 325.03 308.63 323.3 308.81 322.38 309.15 320.67 309.33 319.74 309.67 318.03 309.86 317.09 310.19 315.45 310.37 314.51 310.71 312.79 310.9 311.87 311.24 310.15 311.42 309.22 311.76 307.52 311.94 306.58 312.28 304.87 312.46 303.94 312.8 302.23 313 301.31 313.33 299.59 313.52 298.67 313.85 296.96 314.04 296.03 314.37 294.31 314.56 293.39 314.89 291.67 315.08 290.75 315.43 289.04 315.61 288.11 315.95 286.4 316.42 284.12 315.84 284.01"></polygon><polygon class="cls-23" points="310.48 307.25 311.18 307.39 311.76 307.52 312.46 307.65 312.64 306.72 311.94 306.58 311.36 306.47 310.66 306.33 310.48 307.25"></polygon><polygon class="cls-23" points="311 304.62 311.71 304.75 312.28 304.87 312.98 305.01 313.16 304.08 312.46 303.94 311.89 303.83 311.19 303.69 311 304.62"></polygon><polygon class="cls-23" points="311.53 301.98 312.23 302.12 312.8 302.23 313.5 302.37 313.69 301.44 313 301.31 312.41 301.19 311.72 301.05 311.53 301.98"></polygon><polygon class="cls-23" points="312.05 299.34 312.75 299.48 313.33 299.59 314.03 299.73 314.21 298.81 313.52 298.67 312.93 298.55 312.24 298.41 312.05 299.34"></polygon><polygon class="cls-23" points="312.57 296.71 313.27 296.84 313.85 296.96 314.55 297.1 314.73 296.17 314.04 296.03 313.45 295.91 312.77 295.77 312.57 296.71"></polygon><polygon class="cls-23" points="313.11 294.06 313.79 294.2 314.37 294.31 315.08 294.46 315.26 293.52 314.56 293.39 313.99 293.27 313.29 293.13 313.11 294.06"></polygon><polygon class="cls-23" points="313.63 291.42 314.32 291.56 314.89 291.67 315.6 291.82 315.79 290.88 315.08 290.75 314.51 290.63 313.81 290.5 313.63 291.42"></polygon><polygon class="cls-23" points="314.16 288.78 314.84 288.92 315.43 289.04 316.12 289.17 316.32 288.25 315.61 288.11 315.03 288 314.34 287.86 314.16 288.78"></polygon><polygon class="cls-23" points="314.68 286.14 315.37 286.29 315.95 286.4 316.65 286.53 316.84 285.61 316.13 285.47 315.55 285.36 314.86 285.22 314.68 286.14"></polygon><polygon class="cls-23" points="309.43 312.54 310.13 312.68 310.71 312.79 311.4 312.93 311.59 312 310.9 311.87 310.32 311.75 309.61 311.6 309.43 312.54"></polygon><polygon class="cls-23" points="309.95 309.89 310.66 310.04 311.24 310.15 311.92 310.29 312.11 309.36 311.42 309.22 310.84 309.1 310.14 308.97 309.95 309.89"></polygon><polygon class="cls-23" points="302.12 349.44 302.83 349.59 303.4 349.7 304.09 349.84 304.27 348.91 303.58 348.77 303.01 348.65 302.3 348.52 302.12 349.44"></polygon><polygon class="cls-23" points="302.64 346.81 303.35 346.95 303.92 347.07 304.62 347.2 304.8 346.27 304.1 346.13 303.53 346.02 302.82 345.88 302.64 346.81"></polygon><polygon class="cls-23" points="303.16 344.17 303.87 344.31 304.44 344.42 305.13 344.56 305.32 343.63 304.62 343.5 304.05 343.38 303.35 343.24 303.16 344.17"></polygon><polygon class="cls-23" points="303.69 341.53 304.39 341.67 304.97 341.78 305.67 341.92 305.85 341 305.15 340.86 304.57 340.74 303.88 340.61 303.69 341.53"></polygon><polygon class="cls-23" points="304.21 338.89 304.91 339.03 305.49 339.15 306.19 339.28 306.37 338.36 305.68 338.22 305.09 338.1 304.39 337.96 304.21 338.89"></polygon><polygon class="cls-23" points="304.75 336.26 305.43 336.39 306.01 336.51 306.71 336.65 306.9 335.72 306.19 335.57 305.62 335.46 304.93 335.32 304.75 336.26"></polygon><polygon class="cls-23" points="305.26 333.61 305.96 333.75 306.53 333.86 307.24 334.01 307.42 333.07 306.72 332.94 306.14 332.82 305.45 332.68 305.26 333.61"></polygon><polygon class="cls-23" points="305.79 330.97 306.48 331.11 307.05 331.23 307.76 331.37 307.94 330.44 307.24 330.3 306.67 330.19 305.98 330.05 305.79 330.97"></polygon><polygon class="cls-23" points="306.32 328.33 307 328.47 307.58 328.59 308.29 328.72 308.48 327.8 307.77 327.66 307.19 327.55 306.5 327.41 306.32 328.33"></polygon><polygon class="cls-23" points="306.84 325.7 307.52 325.84 308.11 325.95 308.81 326.09 309 325.16 308.29 325.03 307.71 324.91 307.02 324.77 306.84 325.7"></polygon><polygon class="cls-23" points="307.37 323.06 308.05 323.2 308.63 323.3 309.33 323.45 309.53 322.52 308.81 322.38 308.24 322.26 307.55 322.12 307.37 323.06"></polygon><polygon class="cls-23" points="307.89 320.42 308.58 320.55 309.15 320.67 309.87 320.81 310.05 319.89 309.33 319.74 308.76 319.63 308.07 319.49 307.89 320.42"></polygon><polygon class="cls-23" points="308.41 317.77 309.1 317.91 309.67 318.03 310.39 318.17 310.57 317.24 309.86 317.09 309.28 316.98 308.61 316.85 308.41 317.77"></polygon><polygon class="cls-23" points="308.82 315.18 309.61 315.33 310.19 315.45 310.79 315.57 310.98 314.63 310.37 314.51 309.79 314.4 309 314.25 308.82 315.18"></polygon><polygon class="cls-23" points="301.07 354.73 301.77 354.86 302.34 354.98 303.04 355.12 303.22 354.19 302.53 354.06 301.96 353.94 301.25 353.79 301.07 354.73"></polygon><polygon class="cls-23" points="301.59 352.09 302.29 352.23 302.87 352.34 303.56 352.48 303.75 351.56 303.06 351.42 302.48 351.3 301.77 351.16 301.59 352.09"></polygon><polygon class="cls-23" points="298.48 367.88 299.16 368.02 299.73 368.14 300.45 368.29 300.63 367.35 299.93 367.21 299.35 367.1 298.66 366.96 298.48 367.88"></polygon><polygon class="cls-23" points="299 365.25 299.69 365.39 300.27 365.5 300.97 365.64 301.16 364.71 300.45 364.57 299.88 364.46 299.19 364.32 299 365.25"></polygon><polygon class="cls-23" points="299.53 362.61 300.22 362.75 300.79 362.86 301.5 363 301.69 362.07 300.97 361.93 300.4 361.81 299.71 361.68 299.53 362.61"></polygon><polygon class="cls-23" points="300.05 359.97 300.74 360.11 301.31 360.22 302.03 360.36 302.21 359.44 301.49 359.29 300.92 359.18 300.23 359.04 300.05 359.97"></polygon><polygon class="cls-23" points="300.45 357.37 301.25 357.53 301.82 357.64 302.42 357.76 302.62 356.83 302.01 356.71 301.43 356.6 300.64 356.43 300.45 357.37"></polygon><path class="cls-24" d="M255.56,383.25l-1.12-.84a.22.22,0,0,1-.05-.32l1.55-2.11,1.51,1.11-1.56,2.11A.25.25,0,0,1,255.56,383.25Z"></path><path class="cls-25" d="M300.5,274.85a5,5,0,0,0-1.54-1.36,30.86,30.86,0,0,1-21.83,8.45h0v3h0c8.8,0,16.87-2.48,23.81-8.64A3.62,3.62,0,0,0,300.5,274.85Z"></path><path class="cls-6" d="M248.43,383.42h11a1.54,1.54,0,0,0,1.51-1.86l-1.84-11.9a.82.82,0,0,0-.8-.68H246.16v12.17A2.27,2.27,0,0,0,248.43,383.42Z"></path><rect class="cls-7" x="247.96" y="371.4" width="0.6" height="9.79" rx="0.1" transform="translate(499.49 750.62) rotate(179.55)"></rect><rect class="cls-7" x="250.44" y="371.4" width="0.6" height="9.79" rx="0.1" transform="translate(504.46 750.6) rotate(179.55)"></rect><rect class="cls-7" x="252.93" y="371.4" width="0.6" height="9.79" rx="0.1" transform="translate(509.43 750.58) rotate(179.55)"></rect><rect class="cls-7" x="255.41" y="371.4" width="0.6" height="9.79" rx="0.1" transform="translate(514.4 750.56) rotate(179.55)"></rect><rect class="cls-7" x="257.9" y="371.4" width="0.6" height="9.79" rx="0.1" transform="translate(519.37 750.54) rotate(179.55)"></rect><path d="M305.79,383.42h-11a1.54,1.54,0,0,1-1.5-1.86l1.84-11.9a.8.8,0,0,1,.79-.68h12.18v12.17A2.27,2.27,0,0,1,305.79,383.42Z"></path><rect class="cls-7" x="305.67" y="371.4" width="0.6" height="9.79" rx="0.1" transform="translate(2.99 -2.41) rotate(0.45)"></rect><rect class="cls-7" x="303.18" y="371.4" width="0.6" height="9.79" rx="0.1" transform="matrix(1, 0.01, -0.01, 1, 2.99, -2.39)"></rect><rect class="cls-7" x="300.7" y="371.4" width="0.6" height="9.79" rx="0.1" transform="translate(2.99 -2.37) rotate(0.45)"></rect><rect class="cls-7" x="298.21" y="371.4" width="0.6" height="9.79" rx="0.1" transform="translate(2.99 -2.36) rotate(0.45)"></rect><rect class="cls-7" x="295.72" y="371.4" width="0.6" height="9.79" rx="0.1" transform="translate(2.99 -2.33) rotate(0.45)"></rect><path class="cls-26" d="M255.68,369.35a.94.94,0,0,0-.07-1.27l-1.15-1.23a.94.94,0,0,0-1.27-.14l-5.77,4.78a1.23,1.23,0,0,0-.22,1.8l1.54,1.64a1.24,1.24,0,0,0,1.81-.11Zm-1-1.56a1,1,0,1,1-1.42,1.34,1,1,0,0,1,0-1.39A1,1,0,0,1,254.69,367.79Zm-5.7,5.36a1.09,1.09,0,1,1,1.55.05A1.09,1.09,0,0,1,249,373.15Z"></path><polygon class="cls-26" points="255.74 367.42 255.27 367.94 254.88 368.37 254.38 368.91 253.68 368.27 254.17 367.74 254.57 367.3 255.04 366.78 255.74 367.42"></polygon><path class="cls-6" d="M276.89,254.71a7.69,7.69,0,0,0,7.47-5.87H269.42A7.69,7.69,0,0,0,276.89,254.71Z"></path><path class="cls-27" d="M266.83,314.48,256,309.67a1.91,1.91,0,0,1-1.13-1.74v-.08a1.9,1.9,0,0,1,1-1.7l10.83-5.42a1.91,1.91,0,0,1,2.76,1.7h0a1.91,1.91,0,0,1-1.12,1.73l-7.86,3.59,7.79,3.16a1.91,1.91,0,0,1,1.19,1.77v.06A1.9,1.9,0,0,1,266.83,314.48Z"></path><path class="cls-27" d="M282.72,299.32l-6.51,18a1.89,1.89,0,0,1-1.78,1.25h-1a1.91,1.91,0,0,1-1.79-2.55l6.52-18a1.9,1.9,0,0,1,1.78-1.26h1A1.9,1.9,0,0,1,282.72,299.32Z"></path><path class="cls-27" d="M285.93,310.91l7.79-3.16-7.86-3.59a1.9,1.9,0,0,1-1.11-1.73h0a1.9,1.9,0,0,1,2.75-1.7l10.83,5.42a1.89,1.89,0,0,1,1.05,1.7v.08a1.91,1.91,0,0,1-1.12,1.74l-10.84,4.81a1.9,1.9,0,0,1-2.67-1.74v-.06A1.92,1.92,0,0,1,285.93,310.91Z"></path><g class="cls-28"><path class="cls-4" d="M485.53,44.78c-.44,1.36-.89,2.65-1.2,3.93a13.5,13.5,0,0,0-.53,3.63,5.6,5.6,0,0,0,.24,1.49,5.47,5.47,0,0,0,.26.58,1.67,1.67,0,0,0,.29.33,33.92,33.92,0,0,0,3.2,1.84,8.8,8.8,0,0,1,3.37,3.62,10.27,10.27,0,0,1,1,4.63A9.2,9.2,0,0,1,488,72.37,11.08,11.08,0,0,0,489.44,65a9.48,9.48,0,0,0-1.19-3.21,6.23,6.23,0,0,0-2.32-2.14c-.5-.31-1.07-.57-1.71-.91a8.78,8.78,0,0,1-2.11-1.45,4.81,4.81,0,0,1-.92-1.31,5.13,5.13,0,0,1-.44-1.34,7,7,0,0,1,0-2.58,10.68,10.68,0,0,1,1.79-4.2A12.41,12.41,0,0,1,485.53,44.78Z"></path></g><g class="cls-28"><path class="cls-4" d="M470.32,47.21c-.45,1.37-.89,2.65-1.21,3.93a13.88,13.88,0,0,0-.52,3.63,5.53,5.53,0,0,0,.24,1.49,4.09,4.09,0,0,0,.26.58,1.2,1.2,0,0,0,.28.33,34.84,34.84,0,0,0,3.2,1.85,8.68,8.68,0,0,1,3.37,3.62,10,10,0,0,1,1,4.63,9.19,9.19,0,0,1-4.16,7.53,11.12,11.12,0,0,0,1.47-7.37,9.29,9.29,0,0,0-1.2-3.21,6.28,6.28,0,0,0-2.31-2.14c-.5-.3-1.08-.56-1.72-.91a8.75,8.75,0,0,1-2.1-1.45,5,5,0,0,1-.93-1.3,6.24,6.24,0,0,1-.44-1.35,7.46,7.46,0,0,1,0-2.58,10.59,10.59,0,0,1,1.8-4.19A12.45,12.45,0,0,1,470.32,47.21Z"></path></g></g></svg> 