<!--
	<svg width="24" height="24" viewBox="0 0 24 24" fill="white" xmlns="http://www.w3.org/2000/svg">
		<path d="M23.643 4.937c-.835.37-1.732.62-2.675.733.962-.576 1.7-1.49 2.048-2.578-.9.534-1.897.922-2.958 1.13-.85-.904-2.06-1.47-3.4-1.47-2.572 0-4.658 2.086-4.658 4.66 0 .364.042.718.12 1.06-3.873-.195-7.304-2.05-9.602-4.868-.4.69-.63 1.49-.63 2.342 0 1.616.823 3.043 2.072 3.878-.764-.025-1.482-.234-2.11-.583v.06c0 2.257 1.605 4.14 3.737 4.568-.392.106-.803.162-1.227.162-.3 0-.593-.028-.877-.082.593 1.85 2.313 3.198 4.352 3.234-1.595 1.25-3.604 1.995-5.786 1.995-.376 0-.747-.022-1.112-.065 2.062 1.323 4.51 2.093 7.14 2.093 8.57 0 13.255-7.098 13.255-13.254 0-.2-.005-.402-.014-.602.91-.658 1.7-1.477 2.323-2.41z" />
	</svg> 

	<svg xmlns="http://www.w3.org/2000/svg" viewBox="0 0 24 24" fill="white">
    <path d="M23 3a10.9 10.9 0 0 1-3.14 1.53 4.48 4.48 0 0 0-7.86 3v1A10.66 10.66 0 0 1 3 4s-4 9 5 13a11.64 11.64 0 0 1-7 2c9 5 20 0 20-11.5a4.5 4.5 0 0 0-.08-.83A7.72 7.72 0 0 0 23 3z">
    </path>
</svg>
-->



<svg viewBox="328 355 335 276" xmlns="http://www.w3.org/2000/svg">
  <path d="
    M 630, 425
    A 195, 195 0 0 1 331, 600
    A 142, 142 0 0 0 428, 570
    A  70,  70 0 0 1 370, 523
    A  70,  70 0 0 0 401, 521
    A  70,  70 0 0 1 344, 455
    A  70,  70 0 0 0 372, 460
    A  70,  70 0 0 1 354, 370
    A 195, 195 0 0 0 495, 442
    A  67,  67 0 0 1 611, 380
    A 117, 117 0 0 0 654, 363
    A  65,  65 0 0 1 623, 401
    A 117, 117 0 0 0 662, 390
    A  65,  65 0 0 1 630, 425
    Z"
    style="fill:#fff;"/> <!-- Orginal color: #3BA9EE -->
</svg>